<?xml version="1.0" standalone="no"?>
<!DOCTYPE svg PUBLIC "-//W3C//DTD SVG 20010904//EN"
 "http://www.w3.org/TR/2001/REC-SVG-20010904/DTD/svg10.dtd">
<svg version="1.0" xmlns="http://www.w3.org/2000/svg"
 width="512.000000pt" height="512.000000pt" viewBox="0 0 512.000000 512.000000"
 preserveAspectRatio="xMidYMid meet">
<metadata>
Created by potrace 1.14, written by Peter Selinger 2001-2017
</metadata>
<g transform="translate(0.000000,512.000000) scale(0.100000,-0.100000)"
fill="#000000" stroke="none">
<path d="M1220 3490 l0 -210 -85 0 -85 0 0 -265 0 -265 84 0 85 0 3 -427 c4
-415 5 -430 27 -498 53 -162 139 -270 266 -337 119 -62 176 -73 375 -71 161 1
184 3 294 31 65 17 120 33 122 34 5 5 -63 589 -69 595 -4 3 -37 -2 -74 -10
-146 -34 -219 -28 -264 19 l-24 26 -3 319 -3 319 206 0 205 0 0 265 0 265
-210 0 -210 0 0 210 0 210 -320 0 -320 0 0 -210z"/>
<path d="M3016 3310 c-324 -51 -537 -225 -606 -496 -29 -113 -27 -132 13 -139
29 -5 553 -75 561 -75 2 0 9 21 16 47 20 70 81 128 150 142 104 22 194 -4 244
-72 17 -23 22 -46 24 -117 l4 -88 -304 -4 c-272 -4 -311 -7 -383 -27 -209 -57
-324 -155 -376 -322 -64 -204 -13 -445 121 -579 100 -100 225 -145 396 -144
110 1 208 25 278 67 103 63 201 202 241 340 9 32 18 57 20 55 2 -2 5 -67 7
-143 1 -77 4 -173 6 -213 l4 -72 316 2 317 3 0 620 c0 701 -1 717 -76 874 -75
160 -222 269 -429 322 -70 17 -121 22 -285 24 -110 2 -226 0 -259 -5z m404
-1138 c0 -154 -137 -253 -309 -224 -74 12 -108 34 -134 83 -34 66 -6 143 66
178 37 19 60 21 210 21 l167 0 0 -58z"/>
</g>
</svg>
